HIERARCHY
ROOT Hips
{
    OFFSET   0.000000   0.000000   0.000000
    CHANNELS 6 Xposition Yposition Zposition Zrotation Xrotation Yrotation
    JOINT Chest
    {
        OFFSET   0.000000   8.007230   0.000000
        CHANNELS 3 Zrotation Xrotation Yrotation
        JOINT Chest2
        {
            OFFSET   0.000000  22.077100   0.000000
            CHANNELS 3 Zrotation Xrotation Yrotation
            JOINT Neck
            {
                OFFSET   0.000000  23.254700   0.000000
                CHANNELS 3 Zrotation Xrotation Yrotation
                JOINT Head
                {
                    OFFSET   0.000010  14.370000   1.956610
                    CHANNELS 3 Zrotation Xrotation Yrotation
                    End Site
                    {
                        OFFSET   0.000000  19.566000   0.000000
                    }
                }
            }
            JOINT LeftCollar
            {
                OFFSET   3.911900  19.017000  -0.467063
                CHANNELS 3 Zrotation Xrotation Yrotation
                JOINT LeftShoulder
                {
                    OFFSET  10.383700   0.000000   0.000000
                    CHANNELS 3 Zrotation Xrotation Yrotation
                    JOINT LeftElbow
                    {
                        OFFSET  26.662100   0.001671   0.000522
                        CHANNELS 3 Zrotation Xrotation Yrotation
                        JOINT LeftWrist
                        {
                            OFFSET  28.869000   0.000037  -0.000114
                            CHANNELS 3 Zrotation Xrotation Yrotation
                            JOINT LeftFinger0
                            {
                                OFFSET   2.044650  -2.323450   3.252850
                                CHANNELS 3 Zrotation Xrotation Yrotation
                                JOINT LeftFinger01
                                {
                                    OFFSET   3.088140   0.000000   0.000000
                                    CHANNELS 3 Zrotation Xrotation Yrotation
                                    JOINT LeftFinger02
                                    {
                                        OFFSET   2.639460   0.000000   0.000000
                                        CHANNELS 3 Zrotation Xrotation Yrotation
                                        End Site
                                        {
                                            OFFSET   2.582190   0.000000   0.000000
                                        }
                                    }
                                }
                            }
                            JOINT LeftFinger1
                            {
                                OFFSET   8.364480   0.000000   3.252850
                                CHANNELS 3 Zrotation Xrotation Yrotation
                                JOINT LeftFinger11
                                {
                                    OFFSET   4.646930   0.000000   0.000000
                                    CHANNELS 3 Zrotation Xrotation Yrotation
                                    JOINT LeftFinger12
                                    {
                                        OFFSET   2.323470   0.000000   0.000000
                                        CHANNELS 3 Zrotation Xrotation Yrotation
                                        End Site
                                        {
                                            OFFSET   2.273050   0.000000   0.000000
                                        }
                                    }
                                }
                            }
                            JOINT LeftFinger2
                            {
                                OFFSET   8.364490   0.000016   1.078090
                                CHANNELS 3 Zrotation Xrotation Yrotation
                                JOINT LeftFinger21
                                {
                                    OFFSET   5.111620   0.000000   0.000000
                                    CHANNELS 3 Zrotation Xrotation Yrotation
                                    JOINT LeftFinger22
                                    {
                                        OFFSET   2.788150   0.000013   0.000000
                                        CHANNELS 3 Zrotation Xrotation Yrotation
                                        End Site
                                        {
                                            OFFSET   2.727660   0.000000   0.000000
                                        }
                                    }
                                }
                            }
                            JOINT LeftFinger3
                            {
                                OFFSET   7.899780   0.000016  -1.078090
                                CHANNELS 3 Zrotation Xrotation Yrotation
                                JOINT LeftFinger31
                                {
                                    OFFSET   4.646930   0.000000   0.000000
                                    CHANNELS 3 Zrotation Xrotation Yrotation
                                    JOINT LeftFinger32
                                    {
                                        OFFSET   2.323470   0.000000   0.000000
                                        CHANNELS 3 Zrotation Xrotation Yrotation
                                        End Site
                                        {
                                            OFFSET   2.273050   0.000000   0.000000
                                        }
                                    }
                                }
                            }
                            JOINT LeftFinger4
                            {
                                OFFSET   7.435080   0.000000  -3.252850
                                CHANNELS 3 Zrotation Xrotation Yrotation
                                JOINT LeftFinger41
                                {
                                    OFFSET   3.717550   0.000000   0.000000
                                    CHANNELS 3 Zrotation Xrotation Yrotation
                                    JOINT LeftFinger42
                                    {
                                        OFFSET   1.858760   0.000000   0.000000
                                        CHANNELS 3 Zrotation Xrotation Yrotation
                                        End Site
                                        {
                                            OFFSET   1.818440   0.000000   0.000000
                                        }
                                    }
                                }
                            }
                        }
                    }
                }
            }
            JOINT RightCollar
            {
                OFFSET  -3.911900  19.017000  -0.467064
                CHANNELS 3 Zrotation Xrotation Yrotation
                JOINT RightShoulder
                {
                    OFFSET -10.383700   0.000000   0.000000
                    CHANNELS 3 Zrotation Xrotation Yrotation
                    JOINT RightElbow
                    {
                        OFFSET -26.662100   0.001633   0.000260
                        CHANNELS 3 Zrotation Xrotation Yrotation
                        JOINT RightWrist
                        {
                            OFFSET -28.869000  -0.000045  -0.000080
                            CHANNELS 3 Zrotation Xrotation Yrotation
                            JOINT RightFinger0
                            {
                                OFFSET  -2.044660  -2.323490   3.252850
                                CHANNELS 3 Zrotation Xrotation Yrotation
                                JOINT RightFinger01
                                {
                                    OFFSET  -3.088140   0.000000   0.000000
                                    CHANNELS 3 Zrotation Xrotation Yrotation
                                    JOINT RightFinger02
                                    {
                                        OFFSET  -2.639450   0.000000   0.000000
                                        CHANNELS 3 Zrotation Xrotation Yrotation
                                        End Site
                                        {
                                            OFFSET  -2.582190   0.000000   0.000000
                                        }
                                    }
                                }
                            }
                            JOINT RightFinger1
                            {
                                OFFSET  -8.364480   0.000000   3.252850
                                CHANNELS 3 Zrotation Xrotation Yrotation
                                JOINT RightFinger11
                                {
                                    OFFSET  -4.646920   0.000000   0.000000
                                    CHANNELS 3 Zrotation Xrotation Yrotation
                                    JOINT RightFinger12
                                    {
                                        OFFSET  -2.323470   0.000000   0.000000
                                        CHANNELS 3 Zrotation Xrotation Yrotation
                                        End Site
                                        {
                                            OFFSET  -2.273050   0.000000   0.000000
                                        }
                                    }
                                }
                            }
                            JOINT RightFinger2
                            {
                                OFFSET  -8.364480   0.000000   1.078090
                                CHANNELS 3 Zrotation Xrotation Yrotation
                                JOINT RightFinger21
                                {
                                    OFFSET  -5.111610   0.000000   0.000000
                                    CHANNELS 3 Zrotation Xrotation Yrotation
                                    JOINT RightFinger22
                                    {
                                        OFFSET  -2.788160   0.000000   0.000000
                                        CHANNELS 3 Zrotation Xrotation Yrotation
                                        End Site
                                        {
                                            OFFSET  -2.727660   0.000000   0.000000
                                        }
                                    }
                                }
                            }
                            JOINT RightFinger3
                            {
                                OFFSET  -7.899780   0.000000  -1.078090
                                CHANNELS 3 Zrotation Xrotation Yrotation
                                JOINT RightFinger31
                                {
                                    OFFSET  -4.646930   0.000000   0.000000
                                    CHANNELS 3 Zrotation Xrotation Yrotation
                                    JOINT RightFinger32
                                    {
                                        OFFSET  -2.323470   0.000000   0.000000
                                        CHANNELS 3 Zrotation Xrotation Yrotation
                                        End Site
                                        {
                                            OFFSET  -2.273050   0.000000   0.000000
                                        }
                                    }
                                }
                            }
                            JOINT RightFinger4
                            {
                                OFFSET  -7.435090   0.000000  -3.252850
                                CHANNELS 3 Zrotation Xrotation Yrotation
                                JOINT RightFinger41
                                {
                                    OFFSET  -3.717550   0.000000   0.000000
                                    CHANNELS 3 Zrotation Xrotation Yrotation
                                    JOINT RightFinger42
                                    {
                                        OFFSET  -1.858760   0.000000   0.000000
                                        CHANNELS 3 Zrotation Xrotation Yrotation
                                        End Site
                                        {
                                            OFFSET  -1.818440   0.000000   0.000000
                                        }
                                    }
                                }
                            }
                        }
                    }
                }
            }
        }
    }
    JOINT LeftHip
    {
        OFFSET   9.782990   0.000000   0.000000
        CHANNELS 3 Zrotation Xrotation Yrotation
        JOINT LeftKnee
        {
            OFFSET  -0.000063 -41.789100   0.001657
            CHANNELS 3 Zrotation Xrotation Yrotation
            JOINT LeftAnkle
            {
                OFFSET   0.000078 -41.133200  -0.000113
                CHANNELS 3 Zrotation Xrotation Yrotation
                JOINT LeftToe
                {
                    OFFSET   0.000000  -6.358970  14.674500
                    CHANNELS 3 Zrotation Xrotation Yrotation
                    End Site
                    {
                        OFFSET   0.000000   0.000000   3.913200
                    }
                }
            }
        }
    }
    JOINT RightHip
    {
        OFFSET  -9.782990   0.000000   0.000000
        CHANNELS 3 Zrotation Xrotation Yrotation
        JOINT RightKnee
        {
            OFFSET   0.000053 -41.789200   0.000277
            CHANNELS 3 Zrotation Xrotation Yrotation
            JOINT RightAnkle
            {
                OFFSET   0.000030 -41.133200  -0.000150
                CHANNELS 3 Zrotation Xrotation Yrotation
                JOINT RightToe
                {
                    OFFSET   0.000000  -6.358960  14.674500
                    CHANNELS 3 Zrotation Xrotation Yrotation
                    End Site
                    {
                        OFFSET   0.000000   0.000000   3.913200
                    }
                }
            }
        }
    }
}
MOTION
Frames: 4
Frame Time:   0.016667
  6.536780  89.856900   1.298890   1.083190 -20.875200   8.947030  -4.427410  14.472400  11.904500 -12.515100  27.588000  26.172200   0.020737  -3.861100   0.011404   0.033859  -7.828670 -14.671200  -8.964920 -14.426000  -0.457854 -61.980900  22.535800 -10.752600  -0.740014  -3.280880 -15.779900  10.951500  -3.694840   5.290680  41.474600  38.128800 -69.626700 -32.498100   0.000000   0.000101 -11.249100   0.001934  -0.000000 -30.558600   4.904230  -8.238790 -25.291600   0.006436   0.007976 -17.704100  -0.002579   0.010167 -28.172400  -2.111730   3.935620 -33.770000   0.000616  -0.000158 -22.490800  -0.003749  -0.000355 -27.772100  -2.084110   3.950280 -31.043100   0.000475  -0.000246 -20.674700   0.000000   0.002805 -28.206600  -2.113940   3.934390 -42.418700   0.000846  -0.000250 -28.250900   0.000579  -0.000519   5.570020 -10.678300  14.182100  39.316200  -2.918600  70.218100 -18.723000 -14.006200   3.402780  -5.245720 -75.310600   1.753540 -52.678100  32.714400  61.131400   2.628210  -0.002532   0.000231  -3.685900  -0.001131  -0.001560  24.221700   1.950130   4.325620  19.878000   0.001193  -0.001831  13.914600  -0.000403  -0.011292  28.120300  -4.104330  -7.628210  35.040700  -0.000287   0.003654  23.337100   0.001079  -0.001274  20.516000  -3.054550  -8.103630  20.732400  -0.002320   0.002563  13.807800  -0.001755  -0.007970  19.422900  -2.898540  -8.160390  29.444600   0.001498   0.000541  19.610100  -0.000935   0.001169  -0.520819  23.355800   7.310880  -0.501086   0.064103  -4.858150  -0.500716  -2.313920  -3.681340   0.000000   0.000000   0.000000  -0.249423  19.106900   1.264090  -1.801750  13.977400 -18.338700   5.208100 -10.166300  -2.781410  -0.000000   0.000000  -0.000000
  6.586130  89.856200   1.278180   1.053190 -20.890200   8.885070  -4.407880  14.477900  11.879700 -12.470600  27.606900  26.117500   0.013555  -3.880210   0.011117   0.017003  -7.868710 -14.427300  -8.954360 -14.423000  -0.452255 -61.962300  22.614700 -10.779000  -0.743762  -3.312030 -15.794400  10.951200  -3.676280   5.223390  41.652700  38.281100 -69.945100 -32.347300   0.000000   0.000092 -11.173700   0.001892  -0.000000 -30.542700   5.048750  -8.480660 -25.295600   0.025178  -0.011357 -17.706900   0.016618   0.004494 -28.187000  -1.985300   3.699030 -33.809800   0.000549  -0.000158 -22.517300  -0.003771  -0.000390 -27.787100  -1.959380   3.712790 -31.071600   0.000470  -0.000253 -20.693700  -0.001211   0.002770 -28.246200  -1.989370   3.696790 -42.465500   0.000847  -0.000257 -28.282100   0.000580  -0.000563   5.552490 -10.680300  14.145100  39.378500  -2.904940  70.251600 -18.763600 -13.872500   3.501090  -4.688230 -75.384900   2.266920 -52.635500  32.678300  61.095500   2.635860  -0.002493   0.000224  -3.682060  -0.001091  -0.001502  24.373500   1.994000   4.388830  20.005400   0.001243  -0.001828  14.003800  -0.000392  -0.011307  28.165700  -4.087270  -7.582540  35.479700  -0.000074   0.003786  23.629500   0.001156  -0.001401  20.786500  -3.075010  -8.043710  21.002800  -0.002067   0.002545  13.987900  -0.001306  -0.007968  19.654200  -2.914650  -8.102900  29.791100   0.001682   0.000552  19.840900  -0.000749   0.001192  -0.544409  23.372200   7.311690  -0.517106   0.045188  -4.838230  -0.476184  -2.305930  -3.636700   0.000000   0.000000   0.000000  -0.259589  19.018000   1.264540  -1.860270  14.092200 -18.299800   5.251100 -10.155400  -2.757740  -0.000000   0.000000   0.000000
  6.633050  89.855600   1.255470   1.023980 -20.914300   8.816700  -4.386520  14.483600  11.855600 -12.422600  27.626500  26.063900   0.012245  -3.892960   0.010828   0.019704  -7.893290 -14.222500  -8.944200 -14.419800  -0.448010 -61.940900  22.693000 -10.832600  -0.733297  -3.322140 -15.839000  10.961100  -3.673960   5.156330  41.787100  38.397700 -70.182100 -32.238200   0.000000   0.000079 -11.119100   0.001760  -0.000000 -30.540300   5.153820  -8.656640 -25.306500   0.057404  -0.030689 -17.714500   0.046785  -0.001178 -28.197300  -1.893340   3.527070 -33.842000   0.000483  -0.000159 -22.538800  -0.003840  -0.000425 -27.797700  -1.868660   3.540190 -31.103300   0.000465  -0.000261 -20.714800  -0.003986   0.002734 -28.287900  -1.898780   3.524110 -42.518900   0.000848  -0.000264 -28.317600   0.000580  -0.000607   5.540380 -10.684400  14.108800  39.422600  -2.882310  70.262000 -18.810500 -13.746100   3.612320  -4.220180 -75.470900   2.690390 -52.595800  32.642200  61.059700   2.658860  -0.002466   0.000207  -3.670550  -0.001051  -0.001438  24.641800   2.020710   4.397910  20.224900   0.001296  -0.001826  14.157500  -0.000381  -0.011317  28.216700  -4.067100  -7.529900  35.990700   0.000155   0.003920  23.969800   0.001233  -0.001533  21.092700  -3.097840  -7.975550  21.308700  -0.001809   0.002526  14.191600  -0.000850  -0.007966  19.916700  -2.932710  -8.037460  30.184200   0.001867   0.000565  20.102700  -0.000552   0.001213  -0.567917  23.400200   7.313160  -0.531978   0.026272  -4.815180  -0.449249  -2.297930  -3.592220   0.000000   0.000000   0.000000  -0.267067  19.005300   1.266900  -1.925670  14.129300 -18.256100   5.289420 -10.151300  -2.737450   0.000000   0.000000  -0.000000
  6.676400  89.855000   1.232500   0.997642 -20.943100   8.742890  -4.364230  14.489100  11.831900 -12.372600  27.645900  26.010800   0.018873  -3.898830   0.010552   0.039570  -7.903770 -14.057800  -8.935090 -14.415900  -0.444661 -61.921500  22.754100 -10.903100  -0.709071  -3.305040 -15.915400  10.981300  -3.704690   5.090510  41.664600  38.311500 -69.961500 -32.367100   0.000000   0.000071 -11.183500  -0.009131   0.000000 -30.582500   5.037360  -8.453820 -25.324200   0.093786  -0.025378 -17.726900   0.072049   0.007424 -28.187900  -2.001830   3.729650 -33.822400   0.000422  -0.000160 -22.525700  -0.008077  -0.000458 -27.790900  -1.975830   3.743480 -31.108900   0.000452  -0.000259 -20.718600  -0.009768   0.002696 -28.300300  -2.007290   3.726660 -42.547900   0.000847  -0.000259 -28.336900   0.000579  -0.000648   5.536920 -10.702100  14.073900  39.427400  -2.842130  70.244700 -18.863800 -13.656000   3.730760  -3.799080 -75.573700   3.063440 -52.599200  32.644100  61.058600   2.712600  -0.002465   0.000171  -3.643710  -0.001012  -0.001373  24.897000   2.034970   4.390890  20.434300   0.001348  -0.001829  14.304100  -0.000362  -0.011327  28.253900  -4.051810  -7.490300  36.376200   0.000394   0.004050  24.226500   0.001309  -0.001666  21.345300  -3.117700  -7.922730  21.561200  -0.001542   0.002510  14.359800  -0.000392  -0.007967  20.129400  -2.948070  -7.987090  30.502900   0.002037   0.000574  20.314900  -0.000360   0.001230  -0.591798  23.424200   7.314090  -0.548460   0.035324  -4.788820  -0.418649  -2.313070  -3.543890  -0.000000   0.000000   0.000000  -0.276130  19.043900   1.272370  -1.984610  14.137400 -18.209700   5.324370 -10.155800  -2.720800  -0.000000   0.000000   0.000000
